
<svg xmlns="http://www.w3.org/2000/svg" viewBox="0 0 961.98 617.21"><defs><style>.cls-1{fill:#39b54a;stroke:#39b54a;stroke-miterlimit:10;}.cls-2{fill:#fff;}</style></defs><title>Icon full2</title><g id="Layer_2" data-name="Layer 2"><g id="Icon_full" data-name="Icon full"><path class="cls-1" d="M.5,372.55S188.5,382.9,336,316.06s147.45-66.84,302.76,0,322.77,55.32,322.77,55.32V541.63H.5Z"/><path class="cls-1" d="M327.86,229.53c118-92.88,192-92.88,306.26,0l-15.48,15.75c-91.14-75.86-175-76.93-275.4-.37Z"/><path class="cls-1" d="M273.84,178.39c159.61-125.65,259.79-125.65,414.3,0l-20.94,21.3c-123.29-102.62-236.72-104.08-372.56-.5Z"/><path class="cls-1" d="M216.89,120.64c203.49-160.19,331.21-160.19,528.2,0l-26.7,27.16C561.21,17,416.6,15.12,243.42,147.17Z"/><path class="cls-2" d="M131.93,522.05,131.06,479a439.85,439.85,0,0,1,1.22-49.53L118,509.84H84l-15.35-80.4c1.92,20.06,2.62,33,2.27,49.36L70,522.05H34.61l8.72-121.39h44.3l14,78.66,12.56-78.66h44.47l8.72,121.39Z"/><path class="cls-2" d="M231.16,522.05l-1.22-10.11c-6.45,9.06-15.87,13.6-27.56,13.6-18.13,0-26-11.86-26-29.65v-67h34.53v62.44c0,7.32,2.44,9.06,5.75,9.06,3.14,0,7-2.26,10.12-7.67V428.92h34.53v93.13Z"/><path class="cls-2" d="M349.06,437.46l-12.21,18.67c-6.63-4.19-14.65-6.81-20.76-6.81-7.15,0-9.24,1.75-9.24,4.19,0,3.14,1,4.53,18.66,9.94s27.38,13.08,27.38,30c0,19.18-18.31,32.09-44.12,32.09-16.4,0-31.4-5.76-41-14.83l16.4-18.13c6.62,5.23,15.17,9.24,23.37,9.24,6.45,0,10.11-1.92,10.11-5.75,0-4.54-1.91-5.41-18-10.3-17.44-5.23-27-15.17-27-30.17,0-16.74,14.47-30.17,40.63-30.17C327.08,425.43,340.51,430.14,349.06,437.46Z"/><path class="cls-2" d="M439.92,437.81l-14.3,20.06c-5.58-4.54-10.81-6.45-16.4-6.45-10.11,0-15.69,5.93-15.69,24.76,0,18.66,6.45,22.68,15.35,22.68,5.75,0,9.76-1.92,15.69-6.46L439.92,514c-8.55,7-19,11.51-33,11.51-30.7,0-49.36-20.23-49.36-49.36,0-29.47,19-50.75,48.48-50.75C420.39,425.43,431,430,439.92,437.81Z"/><path class="cls-2" d="M483.17,498.51a14.81,14.81,0,0,0,3.84-.7l6.1,24.59a65.79,65.79,0,0,1-20.23,3.14c-17.79,0-28.26-10.47-28.26-29.82V392.29l34.54-3.49V491.53C479.16,496.94,480.9,498.51,483.17,498.51Z"/><path class="cls-2" d="M583.1,485.25H526.59c1.92,13.43,8.55,15.87,18.67,15.87,6.62,0,13.08-2.61,21.1-8.19l13.95,18.83a60.29,60.29,0,0,1-38.37,13.78c-34.18,0-50.23-21.1-50.23-49.88,0-27.21,15.52-50.23,46.39-50.23,27.56,0,45.7,17.61,45.7,48.83C583.8,477.23,583.45,481.94,583.1,485.25ZM549.79,464.5c-.17-9.42-2.09-17.27-11-17.27-7.32,0-11.16,4.19-12.38,18.49h23.37Z"/><path class="cls-2" d="M686.35,411.48l-17.09,20c-5.76-5.23-12.21-8.54-20.59-8.54-13.6,0-22,12.38-22,38s8.55,37.5,23,37.5c8.55,0,15.17-4.54,22.33-10.12l15.69,20.23c-8.89,8.9-23,16.92-40.11,16.92-35.41,0-58.25-22.5-58.25-64.53,0-40.46,23.72-63.83,57.2-63.83C663.5,397.18,676.06,402.58,686.35,411.48Z"/><path class="cls-2" d="M784.89,475.66c0,30.35-18.32,49.88-48,49.88-29.3,0-48-17.79-48-50.23,0-30.35,18.31-49.88,48-49.88C766.22,425.43,784.89,443.22,784.89,475.66Zm-60.52-.35c0,18.49,3.83,25.46,12.55,25.46s12.56-7.5,12.56-25.11c0-18.49-3.84-25.47-12.56-25.47S724.37,457.69,724.37,475.31Z"/><path class="cls-2" d="M927.37,453.33v68.72H892.84V459.61c0-7.32-2.09-9.07-4.71-9.07-3.31,0-6.8,3-9.59,9.25v62.26H844V459.61c0-7.32-2.1-9.07-4.71-9.07-3.32,0-6.8,3-9.6,9.25v62.26H795.17V428.92h30.17l2.45,9.42c7.5-9.07,15.87-12.91,27-12.91,9.59,0,17.27,4.71,20.93,13.43,7.85-9.42,16.39-13.43,27.9-13.43C917.61,425.43,927.37,435.55,927.37,453.33Z"/><path class="cls-2" d="M628.33,346.67c-1.43,0-4-1.91-7.86-4.79-15.88-11.82-53.05-39.48-139.32-39.48-84.18,0-123.16,27.35-139.8,39-3.94,2.76-6.54,4.59-7.86,4.59a.91.91,0,0,1-.66-.25c-.49-.49-.26-1.39,0-2.07,4.72-11.4,61.87-55.57,148.3-55.57,94.9,0,142.78,43.45,147.88,55.74.49,1.19.54,2.06.15,2.45A1.13,1.13,0,0,1,628.33,346.67Z"/><path class="cls-2" d="M481.15,288.26c51.23,0,87,12.76,107.9,23.45,24.5,12.51,37.45,26.4,39.86,32.22.47,1.13.53,2,.18,2.32a1.06,1.06,0,0,1-.76.29c-1.39,0-3.93-1.89-7.79-4.76a166.61,166.61,0,0,0-43.12-24.06c-26.87-10.25-59.26-15.45-96.27-15.45-36.1,0-68.23,5.16-95.51,15.32a183.74,183.74,0,0,0-44.37,23.74c-3.91,2.75-6.5,4.57-7.78,4.57a.75.75,0,0,1-.57-.21c-.44-.44-.22-1.29.05-1.93,1.27-3.07,6.06-8.07,12.83-13.38a169.35,169.35,0,0,1,30.31-18.57c22-10.74,58.12-23.55,105-23.55m0-.25c-95,0-153.63,52.64-148.41,57.86a1,1,0,0,0,.75.28c6.73,0,42.25-43.63,147.66-43.63,108.44,0,140,44.27,147.18,44.27a1.24,1.24,0,0,0,.93-.37C633.81,341.88,587,288,481.15,288Z"/><path class="cls-2" d="M628.51,360c-1.35,0-3.8-1.22-7.51-3.06-14.47-7.21-52.9-26.36-140.34-26.36-85.42,0-125.11,19-140,26.18-3.65,1.75-6.06,2.9-7.27,2.9a1.08,1.08,0,0,1-.54-.11.48.48,0,0,1-.23-.61c.72-2.82,15-12.33,40.89-21.23,22.39-7.7,59.17-16.88,107.2-16.88,52.95,0,89.68,9.25,111.17,17,24.71,8.92,36.84,18.47,37.58,21.36.08.32,0,.52-.2.64A1.48,1.48,0,0,1,628.51,360Z"/><path class="cls-2" d="M480.66,321c52.93,0,89.64,9.25,111.12,17,24.67,8.92,36.77,18.41,37.51,21.28.09.37-.07.46-.14.5a1.35,1.35,0,0,1-.64.14c-1.32,0-3.76-1.22-7.45-3.05a197.21,197.21,0,0,0-43.09-16c-27.09-6.87-59.83-10.35-97.31-10.35-85.45,0-125.16,19-140.11,26.2-3.63,1.74-6,2.89-7.21,2.89a1.07,1.07,0,0,1-.48-.1c-.13-.07-.24-.18-.17-.47.71-2.79,15-12.26,40.81-21.14,22.38-7.7,59.15-16.88,107.16-16.88m0-.25c-95.05,0-153.13,36.12-147.92,39a1.21,1.21,0,0,0,.6.13c6.32,0,41.11-29.09,147.32-29.09,109.35,0,141,29.43,147.85,29.43a1.61,1.61,0,0,0,.76-.17c4.54-2.47-42.81-39.26-148.61-39.26Z"/><path class="cls-2" d="M627.65,376.15c-1.84,0-4.94-.64-9.62-1.62-16.43-3.41-54.91-11.42-137-11.42-80.13,0-120.1,7.81-137.17,11.15-4.8.93-8,1.55-9.73,1.55a2.84,2.84,0,0,1-1.29-.21c-.27-.13-.27-.28-.25-.39.91-3.85,57.27-24.58,148.6-24.58,53.43,0,90,5.93,111.33,10.91,24.86,5.8,36.5,12,36.95,13.94,0,.18,0,.3-.22.4a3.61,3.61,0,0,1-1.56.27Z"/><path class="cls-2" d="M481.15,350.76c53.41,0,90,5.92,111.3,10.9,24.81,5.79,36.41,12,36.86,13.85,0,.08,0,.17-.16.26a3.45,3.45,0,0,1-1.5.26c-1.83,0-4.92-.65-9.59-1.62C601.62,371,563.14,363,481,363c-80.15,0-120.13,7.81-137.2,11.14-4.79.94-8,1.56-9.7,1.56a2.94,2.94,0,0,1-1.24-.2c-.21-.1-.19-.19-.17-.25.9-3.84,57.2-24.48,148.47-24.48m0-.25c-95,0-153.63,22.6-148.41,25.21a3.18,3.18,0,0,0,1.35.22c8.06,0,44.32-12.7,146.9-12.7,105.33,0,138.25,13,146.66,13a3.51,3.51,0,0,0,1.61-.29c4.55-2.27-42.31-25.48-148.11-25.48Z"/><path d="M25,603.87l-.17.89H5.65V561.29h.92v42.58Z"/><path d="M59.34,586.51c0,.92,0,1.63-.09,2.38H35.88c.19,10.37,5,15.63,12,15.63,4,0,6.65-1.31,9.52-3.68l.5.68a14.49,14.49,0,0,1-10,3.84C40,605.36,35,599.25,35,588.53c0-11,5-17.5,12.65-17.5,8,0,11.74,6.47,11.74,15.48Zm-.93,1.6c0-.64,0-1,0-1.9,0-8.23-3.31-14.34-10.79-14.34-6.8,0-11.66,5.57-11.79,16.24Z"/><path d="M88.14,603.52a11.47,11.47,0,0,1-6.28,1.84c-4.31,0-6.93-2.75-6.93-8V572.48h-5.5v-.81h5.5v-8.44l.9-.08v8.52h9.23l-.13.81h-9.1v24.88c0,4.6,2.14,7.16,6.09,7.16a10.51,10.51,0,0,0,5.8-1.7l.42.7Z"/><path d="M135.63,603.52a11.43,11.43,0,0,1-6.27,1.84c-4.32,0-6.93-2.75-6.93-8V572.48h-5.5v-.81h5.5v-8.44l.89-.08v8.52h9.24l-.14.81h-9.1v24.88c0,4.6,2.14,7.16,6.09,7.16a10.51,10.51,0,0,0,5.8-1.7l.42.7Z"/><path d="M169.29,581.21v23.55h-.89V581.32c0-6-2.44-9.47-7.85-9.47s-9.26,3.26-12.35,8.31v24.6h-.9V558.05l.9-.14v21c3-4.85,7-7.91,12.37-7.91C166.55,571,169.29,574.94,169.29,581.21Z"/><path d="M209.74,586.51c0,.92,0,1.63-.09,2.38H186.28c.19,10.37,5,15.63,12,15.63,4,0,6.65-1.31,9.52-3.68l.5.68a14.49,14.49,0,0,1-10,3.84c-7.87,0-13-6.11-13-16.83,0-11,5-17.5,12.65-17.5,8,0,11.74,6.47,11.74,15.48Zm-.93,1.6c0-.64,0-1,0-1.9,0-8.23-3.31-14.34-10.79-14.34-6.8,0-11.66,5.57-11.79,16.24Z"/><path d="M279.65,571c5.37,0,8.12,3.9,8.12,10.17v23.55h-.9V581.32c0-6-2.41-9.47-7.25-9.47-4.67,0-8.18,3.26-10.89,8.31v24.6h-.89V581c0-5.63-2.38-9.11-7.25-9.11-4.67,0-8.18,3.26-10.89,8.31v24.6h-.9V571.67h.79l.09,7.21c2.66-4.79,6.31-7.84,10.93-7.84s7.52,3,8,8c2.67-4.88,6.33-8,11-8Z"/><path d="M327.27,604.76l0-7c-2.43,4.44-6.17,7.62-11.66,7.62-5.75,0-9.2-3.53-9.2-10.15V571.67h.9v23.49c0,6.24,3.14,9.36,8.41,9.36s8.88-3.26,11.47-7.91V571.67h.89v33.09Z"/><path d="M354.09,571a14.09,14.09,0,0,1,9.69,3.46l-.53.65a13.17,13.17,0,0,0-9.13-3.27c-5,0-8.91,2.86-8.91,7.2,0,4,2.58,5.87,9.32,7.74,7.39,2.05,10.16,4,10.16,9.52s-4.46,9-10.57,9a15.32,15.32,0,0,1-11-4.21l.53-.62a14.49,14.49,0,0,0,10.44,4c5.49,0,9.64-3,9.64-8.19s-2.44-6.77-9.64-8.79c-7-1.92-9.83-4-9.83-8.5,0-4.73,4.35-8,9.8-8Z"/><path d="M390.79,571a11.71,11.71,0,0,1,8.41,3.2l-.53.61a11,11,0,0,0-7.86-3c-7.39,0-12.3,6-12.3,16.52s5.17,16.13,12.2,16.13a11.62,11.62,0,0,0,8.27-3.2l.53.63a12.3,12.3,0,0,1-8.74,3.41c-7.73,0-13.21-6.12-13.21-17S382.69,571,390.79,571Z"/><path d="M414.59,600.32c0,2.66,1,4.21,3.47,4.21a6.77,6.77,0,0,0,2.51-.51l.25.75a7.22,7.22,0,0,1-2.84.59c-2.77,0-4.29-1.73-4.29-5.07V558.05l.9-.11v42.38Z"/><path d="M456.34,586.51c0,.92,0,1.63-.09,2.38H432.88c.19,10.37,5,15.63,12,15.63,4,0,6.65-1.31,9.52-3.68l.5.68a14.49,14.49,0,0,1-10,3.84c-7.87,0-12.95-6.11-12.95-16.83,0-11,5-17.5,12.65-17.5,8,0,11.74,6.47,11.74,15.48Zm-.93,1.6c0-.64,0-1,0-1.9,0-8.23-3.3-14.34-10.78-14.34-6.8,0-11.66,5.57-11.79,16.24Z"/><path d="M479.14,571a14.11,14.11,0,0,1,9.7,3.46l-.53.65a13.2,13.2,0,0,0-9.14-3.27c-5,0-8.9,2.86-8.9,7.2,0,4,2.57,5.87,9.32,7.74,7.39,2.05,10.15,4,10.15,9.52s-4.46,9-10.57,9a15.31,15.31,0,0,1-11-4.21l.53-.62a14.49,14.49,0,0,0,10.43,4c5.5,0,9.65-3,9.65-8.19s-2.44-6.77-9.65-8.79c-7-1.92-9.82-4-9.82-8.5,0-4.73,4.35-8,9.79-8Z"/><path d="M549.72,604.76h-.78l-.11-6c-2,3.6-5.06,6.61-10.71,6.61-7.33,0-12.14-6.23-12.14-17,0-10.25,4.67-17.3,12.73-17.3a11.36,11.36,0,0,1,10.12,5.81v-18.9l.89.11Zm-.89-7.39V578c-1.81-3.15-5-6.17-10.09-6.17-7.28,0-11.87,6.48-11.84,16.46,0,10.29,4.42,16.19,11.25,16.19C543.6,604.52,546.56,601.66,548.83,597.37Z"/><path d="M591.51,588c0,11-5.08,17.32-13.07,17.32s-13-6.41-13-17.1c0-11,5.22-17.22,13.11-17.22S591.51,577.18,591.51,588Zm-25.16.22c0,10.24,4.56,16.26,12.09,16.26s12.15-5.9,12.15-16.48c0-10.29-4.57-16.17-12.05-16.17S566.35,577.65,566.35,588.26Z"/><path d="M643.71,603.52a11.47,11.47,0,0,1-6.28,1.84c-4.31,0-6.93-2.75-6.93-8V572.48H625v-.81h5.5v-8.44l.9-.08v8.52h9.23l-.13.81h-9.1v24.88c0,4.6,2.14,7.16,6.09,7.16a10.51,10.51,0,0,0,5.8-1.7l.42.7Z"/><path d="M677.37,581.21v23.55h-.89V581.32c0-6-2.44-9.47-7.86-9.47s-9.25,3.26-12.35,8.31v24.6h-.89V558.05l.89-.14v21c3-4.85,7-7.91,12.38-7.91C674.62,571,677.37,574.94,677.37,581.21Z"/><path d="M717.81,586.51c0,.92,0,1.63-.09,2.38H694.35c.19,10.37,5,15.63,12,15.63,4,0,6.65-1.31,9.52-3.68l.5.68a14.51,14.51,0,0,1-10,3.84c-7.87,0-13-6.11-13-16.83,0-11,5-17.5,12.65-17.5,8,0,11.73,6.47,11.73,15.48Zm-.93,1.6c0-.64,0-1,0-1.9,0-8.23-3.3-14.34-10.79-14.34-6.8,0-11.66,5.57-11.78,16.24Z"/><path d="M769.66,603.52a11.47,11.47,0,0,1-6.28,1.84c-4.31,0-6.93-2.75-6.93-8V572.48H751v-.81h5.5v-8.44l.9-.08v8.52h9.23l-.13.81h-9.1v24.88c0,4.6,2.14,7.16,6.09,7.16a10.51,10.51,0,0,0,5.8-1.7l.42.7Z"/><path d="M799.41,597.74c0,4.52.75,6.17,3.14,7l-.23.64c-2.66-.84-3.65-2.57-3.69-6.74-2.31,4.38-5.74,6.74-10.88,6.74-6.25,0-9.8-4-9.8-9.83,0-6.61,5-10.34,12.87-10.34h7.7V581.1c0-5.84-2.19-9.23-8.63-9.23a24,24,0,0,0-9.24,2.12l-.29-.78a24.47,24.47,0,0,1,9.53-2.17c6.86,0,9.53,3.62,9.53,10v16.73Zm-11.66,6.78c5.31,0,8.53-2.59,10.77-7.07V586H791c-7.49,0-12.09,3.35-12.09,9.5,0,5.4,3.24,9,8.85,9Z"/><path d="M819.31,600.32c0,2.66,1,4.21,3.48,4.21a6.72,6.72,0,0,0,2.5-.51l.25.75a7.19,7.19,0,0,1-2.84.59c-2.77,0-4.28-1.73-4.28-5.07V558.05l.89-.11v42.38Z"/><path d="M840.19,604.76V558.05l.89-.11v46.82Zm20.14,0h-1.12l-17.75-18.09,16.08-15h1.15l-16.08,15Z"/><path d="M874.57,559.91a.88.88,0,0,1-.93.9.9.9,0,1,1,0-1.8A.87.87,0,0,1,874.57,559.91Zm-1.38,44.85V571.67h.89v33.09Z"/><path d="M906.57,571c6,0,8.72,3.77,8.72,10.17v23.55h-.9V581.32c0-6.12-2.4-9.47-7.85-9.47s-9.26,3.26-12.35,8.31v24.6h-.89V571.67h.78l.1,7.27c3-4.83,7-7.9,12.39-7.9Z"/><path d="M956.33,570.76c-2,.58-5,1-10.68,1,5,1.11,7.72,4.81,7.72,10.27,0,6.56-4.34,10.48-11.13,10.48a12.61,12.61,0,0,1-5-1c-2,1.19-3.44,2.9-3.44,5,0,2.63,2,4.36,6.58,4.36h5.67c6.1,0,9.55,3,9.55,7.56,0,5.58-4.18,8.76-13,8.76-9,0-13-2.33-13-8.7h.89c.06,5.84,3.51,7.86,12.07,7.86,8.35,0,12.12-2.84,12.12-7.87,0-4.18-3.22-6.78-8.68-6.78h-5.67c-4.92,0-7.45-2.06-7.45-5.05,0-2.44,1.58-4.19,3.62-5.51a9.69,9.69,0,0,1-5.57-9.24c0-6.55,4.44-10.89,11-10.89,9.74,0,11.52-.47,14.08-1.24l.27,1ZM942,571.85c-6.42,0-10.14,4.19-10.14,10.06,0,6.51,5,9.79,10.38,9.79,6.25,0,10.21-3.47,10.21-9.67,0-6.91-4.5-10.18-10.45-10.18Z"/></g></g></svg>
